<!DOCTYPE svg PUBLIC "-//W3C//DTD SVG 1.1//EN" "http://www.w3.org/Graphics/SVG/1.1/DTD/svg11.dtd">
<!-- Uploaded to: SVG Repo, www.svgrepo.com, Transformed by: SVG Repo Mixer Tools -->
<svg xmlns="http://www.w3.org/2000/svg" xmlns:xlink="http://www.w3.org/1999/xlink" version="1.1" id="Capa_1" viewBox="0 0 455 455" xml:space="preserve" width="800px" height="800px" fill="#000000" stroke="#000000" stroke-width="2.275">
<g id="SVGRepo_bgCarrier" stroke-width="0"/>
<g id="SVGRepo_tracerCarrier" stroke-linecap="round" stroke-linejoin="round"/>
<g id="SVGRepo_iconCarrier"> <g> <polygon style="fill:#ffffff;" points="113.75,273.153 113.75,455 227.5,455 237.5,342.625 227.5,230.25 "/> <polygon style="fill:#000000;" points="227.5,230.25 227.5,455 341.25,455 341.25,273.153 "/> <polygon style="fill:#000000;" points="227.5,0 180.104,113.75 227.5,133.75 274.896,113.75 "/> <path style="fill:#ffffff;" d="M113.75,273.153c12.772,7.363,27.943,11.648,44.236,11.648c29.281,0,54.966-13.799,69.514-34.552 c14.548,20.753,40.233,34.552,69.514,34.552c16.293,0,31.465-4.286,44.236-11.648V273l-66.354-159.25h-94.792L113.75,273V273.153z"/> </g> </g>
</svg>